0
SECTION
2
HEADER
9
$ACADVER
1
AC1015
9
$DWGCODEPAGE
3
ANSI_949
9
$HANDSEED
5
FFFF
9
$INSBASE
10
0.0
20
0.0
30
0.0
9
$EXTMIN
10
-60.0
20
-60.0
30
0.0
9
$EXTMAX
10
260.0
20
160.0
30
0.0
9
$LIMMIN
10
0.0
20
0.0
9
$LIMMAX
10
420.0
20
297.0
9
$INSUNITS
70
4
9
$MEASUREMENT
70
1
9
$LUNITS
70
2
9
$LUPREC
70
4
9
$TILEMODE
70
1
9
$PDMODE
70
0
9
$CLAYER
8
0
9
$TEXTSTYLE
7
Standard
9
$DIMSTYLE
2
Standard
9
$CELTYPE
6
ByLayer
9
$CECOLOR
62
256
0
ENDSEC
0
SECTION
2
TABLES
0
TABLE
2
VPORT
5
8
100
AcDbSymbolTable
70
1
0
VPORT
5
1D
330
8
100
AcDbSymbolTableRecord
100
AcDbViewportTableRecord
2
*Active
70
0
10
0.0
20
0.0
11
1.0
21
1.0
12
100.0
22
50.0
13
0.0
23
0.0
14
10.0
24
10.0
15
10.0
25
10.0
16
0.0
26
0.0
36
1.0
17
0.0
27
0.0
37
0.0
40
297.0
41
1.5
42
50.0
43
0.0
44
0.0
50
0.0
51
0.0
71
0
72
100
73
1
74
3
75
0
76
0
77
0
78
0
0
ENDTAB
0
TABLE
2
LTYPE
5
5
100
AcDbSymbolTable
70
4
0
LTYPE
5
15
330
5
100
AcDbSymbolTableRecord
100
AcDbLinetypeTableRecord
2
ByBlock
70
0
3

72
65
73
0
40
0.0
0
LTYPE
5
16
330
5
100
AcDbSymbolTableRecord
100
AcDbLinetypeTableRecord
2
ByLayer
70
0
3

72
65
73
0
40
0.0
0
LTYPE
5
17
330
5
100
AcDbSymbolTableRecord
100
AcDbLinetypeTableRecord
2
Continuous
70
0
3
Solid line
72
65
73
0
40
0.0
0
LTYPE
5
18
330
5
100
AcDbSymbolTableRecord
100
AcDbLinetypeTableRecord
2
DASHED
70
0
3
Dashed __ __ __ __
72
65
73
2
40
15.0
49
12.0
74
0
49
-3.0
74
0
0
ENDTAB
0
TABLE
2
LAYER
5
2
100
AcDbSymbolTable
70
5
0
LAYER
5
10
330
2
100
AcDbSymbolTableRecord
100
AcDbLayerTableRecord
2
0
70
0
62
7
6
Continuous
370
-3
290
1
0
LAYER
5
11
330
2
100
AcDbSymbolTableRecord
100
AcDbLayerTableRecord
2
A-WALL
70
0
62
3
6
Continuous
370
25
290
1
0
LAYER
5
12
330
2
100
AcDbSymbolTableRecord
100
AcDbLayerTableRecord
2
A-TEXT
70
0
62
2
6
Continuous
370
13
290
1
0
LAYER
5
13
330
2
100
AcDbSymbolTableRecord
100
AcDbLayerTableRecord
2
A-HATCH
70
0
62
1
6
DASHED
370
9
290
1
0
LAYER
5
14
330
2
100
AcDbSymbolTableRecord
100
AcDbLayerTableRecord
2
치수
70
0
62
4
6
Continuous
370
9
290
1
0
ENDTAB
0
TABLE
2
STYLE
5
3
100
AcDbSymbolTable
70
2
0
STYLE
5
19
330
3
100
AcDbSymbolTableRecord
100
AcDbTextStyleTableRecord
2
Standard
70
0
40
0.0
41
1.0
50
0.0
71
0
42
2.5
3
txt.shx
4

0
STYLE
5
1A
330
3
100
AcDbSymbolTableRecord
100
AcDbTextStyleTableRecord
2
HANGUL
70
0
40
0.0
41
0.9
50
0.0
71
0
42
2.5
3
txt.shx
4
whgtxt.shx
0
ENDTAB
0
TABLE
2
VIEW
5
6
100
AcDbSymbolTable
70
0
0
ENDTAB
0
TABLE
2
UCS
5
7
100
AcDbSymbolTable
70
0
0
ENDTAB
0
TABLE
2
APPID
5
9
100
AcDbSymbolTable
70
1
0
APPID
5
1B
330
9
100
AcDbSymbolTableRecord
100
AcDbRegAppTableRecord
2
ACAD
70
0
0
ENDTAB
0
TABLE
2
DIMSTYLE
5
A
100
AcDbSymbolTable
70
1
100
AcDbDimStyleTable
71
0
0
DIMSTYLE
105
1C
330
A
100
AcDbSymbolTableRecord
100
AcDbDimStyleTableRecord
2
Standard
70
0
40
1.0
41
2.5
42
0.625
43
3.75
44
1.25
140
2.5
141
2.5
147
0.625
73
0
74
0
77
1
78
8
171
3
172
1
271
4
272
4
274
3
278
44
340
19
0
ENDTAB
0
TABLE
2
BLOCK_RECORD
5
1
100
AcDbSymbolTable
70
4
0
BLOCK_RECORD
5
1E
330
1
100
AcDbSymbolTableRecord
100
AcDbBlockTableRecord
2
*Model_Space
340
30
70
0
280
1
281
0
0
BLOCK_RECORD
5
1F
330
1
100
AcDbSymbolTableRecord
100
AcDbBlockTableRecord
2
*Paper_Space
340
31
70
0
280
1
281
0
0
BLOCK_RECORD
5
20
330
1
100
AcDbSymbolTableRecord
100
AcDbBlockTableRecord
2
TITLEBLK
70
0
280
1
281
0
0
BLOCK_RECORD
5
21
330
1
100
AcDbSymbolTableRecord
100
AcDbBlockTableRecord
2
*D1
70
0
280
1
281
0
0
ENDTAB
0
ENDSEC
0
SECTION
2
BLOCKS
0
BLOCK
5
22
330
1E
100
AcDbEntity
8
0
100
AcDbBlockBegin
2
*Model_Space
70
0
10
0.0
20
0.0
30
0.0
3
*Model_Space
1

0
ENDBLK
5
23
330
1E
100
AcDbEntity
8
0
100
AcDbBlockEnd
0
BLOCK
5
24
330
1F
100
AcDbEntity
8
0
100
AcDbBlockBegin
2
*Paper_Space
70
0
10
0.0
20
0.0
30
0.0
3
*Paper_Space
1

0
ENDBLK
5
25
330
1F
100
AcDbEntity
8
0
100
AcDbBlockEnd
0
BLOCK
5
26
330
20
100
AcDbEntity
8
0
100
AcDbBlockBegin
2
TITLEBLK
70
0
10
0.0
20
0.0
30
0.0
3
TITLEBLK
1

0
LWPOLYLINE
5
2A
330
20
100
AcDbEntity
8
0
100
AcDbPolyline
90
4
70
1
43
0.0
10
0.0
20
0.0
10
60.0
20
0.0
10
60.0
20
20.0
10
0.0
20
20.0
0
ATTDEF
5
2B
330
20
100
AcDbEntity
8
A-TEXT
100
AcDbText
10
3.0
20
6.0
30
0.0
40
5.0
1
대명건설 신축공사
7
HANGUL
100
AcDbAttributeDefinition
3
도면 제목
2
TITLE
70
0
73
0
74
0
0
ENDBLK
5
27
330
20
100
AcDbEntity
8
0
100
AcDbBlockEnd
0
BLOCK
5
28
330
21
100
AcDbEntity
8
치수
100
AcDbBlockBegin
2
*D1
70
0
10
0.0
20
0.0
30
0.0
3
*D1
1

0
LINE
5
2C
330
21
100
AcDbEntity
67
0
8
치수
100
AcDbLine
10
0.0
20
-20.0
30
0.0
11
100.0
21
-20.0
31
0.0
0
LINE
5
2D
330
21
100
AcDbEntity
67
0
8
치수
100
AcDbLine
10
0.0
20
-2.0
30
0.0
11
0.0
21
-22.0
31
0.0
0
LINE
5
2E
330
21
100
AcDbEntity
67
0
8
치수
100
AcDbLine
10
100.0
20
-2.0
30
0.0
11
100.0
21
-22.0
31
0.0
0
MTEXT
5
2F
330
21
100
AcDbEntity
8
치수
100
AcDbMText
10
50.0
20
-18.0
30
0.0
40
5.0
41
0.0
46
0.0
71
5
72
5
1
100
7
Standard
11
1.0
21
0.0
31
0.0
73
1
44
1.0
0
ENDBLK
5
29
330
21
100
AcDbEntity
8
치수
100
AcDbBlockEnd
0
ENDSEC
0
SECTION
2
ENTITIES
0
LINE
5
100
330
1E
100
AcDbEntity
67
0
8
A-WALL
100
AcDbLine
10
0.0
20
0.0
30
0.0
11
200.0
21
0.0
31
0.0
0
LWPOLYLINE
5
101
330
1E
100
AcDbEntity
8
A-WALL
100
AcDbPolyline
90
4
70
1
43
0.0
10
0.0
20
0.0
10
200.0
20
0.0
10
200.0
20
100.0
42
0.5
10
0.0
20
100.0
0
CIRCLE
5
102
330
1E
100
AcDbEntity
8
A-WALL
100
AcDbCircle
10
50.0
20
50.0
30
0.0
40
20.0
0
ARC
5
103
330
1E
100
AcDbEntity
8
A-WALL
100
AcDbCircle
10
150.0
20
50.0
30
0.0
40
25.0
100
AcDbArc
50
0.0
51
90.0
0
TEXT
5
104
330
1E
100
AcDbEntity
8
A-TEXT
100
AcDbText
10
10.0
20
110.0
30
0.0
40
8.0
1
대명건설 도면
7
HANGUL
72
0
11
0.0
21
0.0
31
0.0
100
AcDbText
73
0
0
MTEXT
5
105
330
1E
100
AcDbEntity
8
A-TEXT
100
AcDbMText
10
10.0
20
145.0
30
0.0
40
6.0
41
120.0
46
0.0
71
1
72
5
1
지하 1층 평면도\P축척 1:100\P{\C1;검토자 홍길동}
7
Standard
11
1.0
21
0.0
31
0.0
73
1
44
1.0
0
INSERT
5
106
330
1E
100
AcDbEntity
8
0
100
AcDbBlockReference
66
1
2
TITLEBLK
10
220.0
20
10.0
30
0.0
41
1.5
42
1.5
43
1.0
50
30.0
0
ATTRIB
5
107
330
106
100
AcDbEntity
8
A-TEXT
100
AcDbText
10
223.0
20
16.0
30
0.0
40
5.0
1
대명건설 신축공사
7
HANGUL
100
AcDbAttribute
2
TITLE
70
0
73
0
74
0
0
SEQEND
5
108
330
106
100
AcDbEntity
8
A-TEXT
0
HATCH
5
109
330
1E
100
AcDbEntity
8
A-HATCH
62
1
100
AcDbHatch
10
0.0
20
0.0
30
0.0
210
0.0
220
0.0
230
1.0
2
SOLID
70
1
71
0
91
1
92
1
93
4
72
1
10
20.0
20
20.0
11
80.0
21
20.0
72
1
10
80.0
20
20.0
11
80.0
21
80.0
72
1
10
80.0
20
80.0
11
20.0
21
80.0
72
1
10
20.0
20
80.0
11
20.0
21
20.0
97
0
75
0
76
1
47
1.0
98
0
0
DIMENSION
5
10A
330
1E
100
AcDbEntity
8
치수
100
AcDbDimension
280
0
2
*D1
10
50.0
20
-20.0
30
0.0
11
50.0
21
-18.0
31
0.0
70
32
71
5
42
100.0
1

3
Standard
100
AcDbAlignedDimension
13
0.0
23
0.0
33
0.0
14
100.0
24
0.0
34
0.0
100
AcDbRotatedDimension
50
0.0
0
VIEWPORT
5
200
330
1F
100
AcDbEntity
67
1
8
0
100
AcDbViewport
10
210.0
20
148.5
30
0.0
40
420.0
41
297.0
68
0
69
1
100
AcDbViewport
12
0.0
22
0.0
13
0.0
23
0.0
14
10.0
24
10.0
15
10.0
25
10.0
16
0.0
26
0.0
36
1.0
17
0.0
27
0.0
37
0.0
42
50.0
43
0.0
44
0.0
45
297.0
50
0.0
51
0.0
72
100
90
32864
281
0
71
1
74
0
110
0.0
120
0.0
130
0.0
111
1.0
121
0.0
131
0.0
112
0.0
122
1.0
132
0.0
345
1D
0
VIEWPORT
5
201
330
1F
100
AcDbEntity
67
1
8
0
100
AcDbViewport
10
150.0
20
150.0
30
0.0
40
240.0
41
180.0
68
2
69
2
100
AcDbViewport
12
100.0
22
50.0
13
0.0
23
0.0
14
10.0
24
10.0
15
10.0
25
10.0
16
0.0
26
0.0
36
1.0
17
0.0
27
0.0
37
0.0
42
50.0
43
0.0
44
0.0
45
220.0
50
0.0
51
0.0
72
100
90
819232
281
0
71
1
74
0
110
0.0
120
0.0
130
0.0
111
1.0
121
0.0
131
0.0
112
0.0
122
1.0
132
0.0
345
1D
0
LINE
5
202
330
1F
100
AcDbEntity
67
1
8
0
100
AcDbLine
10
10.0
20
10.0
30
0.0
11
410.0
21
10.0
31
0.0
0
ENDSEC
0
SECTION
2
OBJECTS
0
DICTIONARY
5
C
330
0
100
AcDbDictionary
281
1
3
ACAD_GROUP
350
D
3
ACAD_LAYOUT
350
E
0
DICTIONARY
5
D
330
C
100
AcDbDictionary
281
1
0
DICTIONARY
5
E
330
C
100
AcDbDictionary
281
1
3
Model
350
30
3
Layout1
350
31
0
LAYOUT
5
30
330
E
100
AcDbPlotSettings
1

2
none_device
4

6

40
0.0
41
0.0
42
0.0
43
0.0
44
420.0
45
297.0
46
0.0
47
0.0
48
0.0
49
0.0
140
0.0
141
0.0
142
1.0
143
1.0
70
688
72
1
73
0
74
5
7

75
16
147
1.0
148
0.0
149
0.0
100
AcDbLayout
1
Model
70
1
71
0
10
0.0
20
0.0
11
420.0
21
297.0
12
0.0
22
0.0
32
0.0
14
0.0
24
0.0
34
0.0
15
420.0
25
297.0
35
0.0
146
0.0
13
0.0
23
0.0
33
0.0
16
1.0
26
0.0
36
0.0
17
0.0
27
1.0
37
0.0
76
0
330
1E
0
LAYOUT
5
31
330
E
100
AcDbPlotSettings
1

2
none_device
4

6

40
0.0
41
0.0
42
0.0
43
0.0
44
420.0
45
297.0
46
0.0
47
0.0
48
0.0
49
0.0
140
0.0
141
0.0
142
1.0
143
1.0
70
688
72
1
73
0
74
5
7

75
16
147
1.0
148
0.0
149
0.0
100
AcDbLayout
1
Layout1
70
1
71
1
10
0.0
20
0.0
11
420.0
21
297.0
12
0.0
22
0.0
32
0.0
14
0.0
24
0.0
34
0.0
15
420.0
25
297.0
35
0.0
146
0.0
13
0.0
23
0.0
33
0.0
16
1.0
26
0.0
36
0.0
17
0.0
27
1.0
37
0.0
76
0
330
1F
0
ENDSEC
0
EOF
