0
SECTION
2
HEADER
9
$ACADVER
1
AC1032
9
$HANDSEED
5
1
9
$DWGCODEPAGE
3
UTF-8
9
$INSUNITS
70
4
9
$LUNITS
70
2
9
$LUPREC
70
4
9
$UNITMODE
70
0
9
$MEASUREMENT
70
1
9
$LTSCALE
40
1
9
$LWDISPLAY
70
0
9
$CELTSCALE
40
1
9
$CELWEIGHT
370
-1
9
$CECOLOR
62
256
9
$TILEMODE
70
1
9
$PSLTSCALE
70
1
9
$CLAYER
8
0
9
$CELTYPE
6
ByLayer
9
$CETRANSPARENCY
440
255
9
$CMLSTYLE
2
Standard
9
$CMLSCALE
40
1
9
$CMLEADERSTYLE
2
Standard
9
$HPCOLOR
2
256
9
$HPLAYER
8
.
9
$HPTRANSPARENCY
440
255
9
$TEXTSTYLE
7
Standard
9
$DIMSTYLE
2
Standard
9
$ANGBASE
50
0
9
$ANGDIR
70
0
9
$AUNITS
70
0
9
$AUPREC
70
0
9
$EXTMIN
10
-60
20
-60
30
0
9
$EXTMAX
10
260
20
160
30
0
9
$PDMODE
70
0
9
$PDSIZE
40
0
9
$OSMODE
70
0
9
$ORTHOMODE
70
0
0
ENDSEC
0
SECTION
2
TABLES
0
TABLE
2
VPORT
5
9
330
0
100
AcDbSymbolTable
70
1
0
VPORT
5
1D
330
9
100
AcDbSymbolTableRecord
100
AcDbViewportTableRecord
2
*Active
40
297
41
1.5
45
297
10
0
20
0
11
1
21
1
12
100
22
50
13
0
23
0
14
10
24
10
15
10
25
10
70
0
71
100
42
50
16
0
26
0
36
1
17
0
27
0
37
0
50
0
51
0
61
10
146
0
170
0
282
0
292
0
281
0
0
ENDTAB
0
TABLE
2
VIEW
5
7
330
0
100
AcDbSymbolTable
70
0
0
ENDTAB
0
TABLE
2
UCS
5
6
330
0
100
AcDbSymbolTable
70
0
0
ENDTAB
0
TABLE
2
LTYPE
5
4
330
0
100
AcDbSymbolTable
70
4
0
LTYPE
5
15
330
4
100
AcDbSymbolTableRecord
100
AcDbLinetypeTableRecord
2
ByBlock
70
0
3
0
72
65
73
0
40
0
0
LTYPE
5
16
330
4
100
AcDbSymbolTableRecord
100
AcDbLinetypeTableRecord
2
ByLayer
70
0
3
0
72
65
73
0
40
0
0
LTYPE
5
17
330
4
100
AcDbSymbolTableRecord
100
AcDbLinetypeTableRecord
2
Continuous
70
0
3
Solid line
72
65
73
0
40
0
0
LTYPE
5
18
330
4
100
AcDbSymbolTableRecord
100
AcDbLinetypeTableRecord
2
DASHED
70
0
3
Dashed __ __ __ __
72
65
73
2
40
15
49
12
74
0
49
-3
74
0
0
ENDTAB
0
TABLE
2
LAYER
5
8
330
0
100
AcDbSymbolTable
70
5
0
LAYER
5
10
330
8
100
AcDbSymbolTableRecord
100
AcDbLayerTableRecord
2
0
70
0
62
7
6
Continuous
290
1
370
-3
440
255
0
LAYER
5
11
330
8
100
AcDbSymbolTableRecord
100
AcDbLayerTableRecord
2
A-WALL
70
0
62
3
6
Continuous
290
1
370
25
440
255
0
LAYER
5
12
330
8
100
AcDbSymbolTableRecord
100
AcDbLayerTableRecord
2
A-TEXT
70
0
62
2
6
Continuous
290
1
370
13
440
255
0
LAYER
5
13
330
8
100
AcDbSymbolTableRecord
100
AcDbLayerTableRecord
2
A-HATCH
70
0
62
1
6
DASHED
290
1
370
9
440
255
0
LAYER
5
14
330
8
100
AcDbSymbolTableRecord
100
AcDbLayerTableRecord
2
치수
70
0
62
4
6
Continuous
290
1
370
9
440
255
0
ENDTAB
0
TABLE
2
STYLE
5
5
330
0
100
AcDbSymbolTable
70
2
0
STYLE
5
19
330
5
100
AcDbSymbolTableRecord
100
AcDbTextStyleTableRecord
2
Standard
70
0
40
0
41
1
50
0
71
0
42
2.5
3
txt
4
0
0
STYLE
5
1A
330
5
100
AcDbSymbolTableRecord
100
AcDbTextStyleTableRecord
2
HANGUL
70
0
40
0
41
0.9
50
0
71
0
42
2.5
3
txt
4
whgtxt.shx
0
ENDTAB
0
TABLE
2
APPID
5
1
330
0
100
AcDbSymbolTable
70
2
0
APPID
5
1B
330
1
100
AcDbSymbolTableRecord
100
AcDbRegAppTableRecord
2
ACAD
70
0
0
APPID
5
10007
330
1
100
AcDbSymbolTableRecord
100
AcDbRegAppTableRecord
2
mlightcad
70
0
0
ENDTAB
0
TABLE
2
DIMSTYLE
5
3
330
0
100
AcDbSymbolTable
70
1
0
DIMSTYLE
105
1C
330
3
100
AcDbSymbolTableRecord
100
AcDbDimStyleTableRecord
2
Standard
70
0
3
0
4
0
40
1
41
2.5
42
0.625
43
3.75
44
1.25
140
2.5
147
0.625
170
0
171
0
172
0
173
0
174
0
371
-2
372
-2
0
ENDTAB
0
TABLE
2
BLOCK_RECORD
5
2
330
0
100
AcDbSymbolTable
70
4
0
BLOCK_RECORD
5
1E
330
2
100
AcDbSymbolTableRecord
100
AcDbBlockTableRecord
2
*Model_Space
70
0
280
1
281
0
340
30
0
BLOCK_RECORD
5
1F
330
2
100
AcDbSymbolTableRecord
100
AcDbBlockTableRecord
2
*Paper_Space
70
0
280
1
281
0
340
31
0
BLOCK_RECORD
5
20
330
2
100
AcDbSymbolTableRecord
100
AcDbBlockTableRecord
2
TITLEBLK
70
0
280
1
281
0
0
BLOCK_RECORD
5
21
330
2
100
AcDbSymbolTableRecord
100
AcDbBlockTableRecord
2
*D1
70
0
280
1
281
0
0
ENDTAB
0
ENDSEC
0
SECTION
2
BLOCKS
0
BLOCK
5
1000A
330
1E
100
AcDbEntity
8
0
100
AcDbBlockBegin
2
*Model_Space
70
0
10
0
20
0
30
0
3
*Model_Space
0
ENDBLK
5
1000B
330
1E
100
AcDbEntity
100
AcDbBlockEnd
0
BLOCK
5
1000C
330
1F
100
AcDbEntity
8
0
100
AcDbBlockBegin
2
*Paper_Space
70
0
10
0
20
0
30
0
3
*Paper_Space
0
ENDBLK
5
1000D
330
1F
100
AcDbEntity
100
AcDbBlockEnd
0
BLOCK
5
1000E
330
20
100
AcDbEntity
8
0
100
AcDbBlockBegin
2
TITLEBLK
70
0
10
0
20
0
30
0
3
TITLEBLK
0
LWPOLYLINE
5
2A
330
20
100
AcDbEntity
8
0
6
ByLayer
48
1
60
0
62
256
370
-1
440
255
100
AcDbPolyline
90
4
70
1
38
0
10
0
20
0
40
0
41
0
10
60
20
0
40
0
41
0
10
60
20
20
40
0
41
0
10
0
20
20
40
0
41
0
210
0
220
0
230
1
0
ATTDEF
5
2B
330
20
100
AcDbEntity
8
A-TEXT
6
ByLayer
48
1
60
0
62
256
370
-1
440
255
100
AcDbText
10
3
20
6
30
0
39
1
40
5
1
대명건설 신축공사
50
0
41
1
51
0
7
HANGUL
72
0
73
0
11
3
21
6
31
0
210
0
220
0
230
1
100
AcDbAttributeDefinition
3
도면 제목
2
TITLE
70
0
73
0
74
0
0
ENDBLK
5
1000F
330
20
100
AcDbEntity
100
AcDbBlockEnd
0
BLOCK
5
10010
330
21
100
AcDbEntity
8
0
100
AcDbBlockBegin
2
*D1
70
0
10
0
20
0
30
0
3
*D1
0
LINE
5
2C
330
21
100
AcDbEntity
8
치수
6
ByLayer
48
1
60
0
62
256
370
-1
440
255
100
AcDbLine
10
0
20
-20
30
0
11
100
21
-20
31
0
210
0
220
0
230
1
0
LINE
5
2D
330
21
100
AcDbEntity
8
치수
6
ByLayer
48
1
60
0
62
256
370
-1
440
255
100
AcDbLine
10
0
20
-2
30
0
11
0
21
-22
31
0
210
0
220
0
230
1
0
LINE
5
2E
330
21
100
AcDbEntity
8
치수
6
ByLayer
48
1
60
0
62
256
370
-1
440
255
100
AcDbLine
10
100
20
-2
30
0
11
100
21
-22
31
0
210
0
220
0
230
1
0
MTEXT
5
2F
330
21
100
AcDbEntity
8
치수
6
ByLayer
48
1
60
0
62
256
370
-1
440
255
100
AcDbMText
10
50
20
-18
30
0
40
5
41
0
1
100
7
Standard
50
0
11
1
21
0
31
0
71
5
72
5
73
1
44
1
210
0
220
0
230
1
0
ENDBLK
5
10011
330
21
100
AcDbEntity
100
AcDbBlockEnd
0
ENDSEC
0
SECTION
2
ENTITIES
0
LINE
5
100
330
1E
100
AcDbEntity
8
A-WALL
6
ByLayer
48
1
60
0
62
256
370
-1
440
255
100
AcDbLine
10
0
20
0
30
0
11
200
21
0
31
0
210
0
220
0
230
1
0
LWPOLYLINE
5
101
330
1E
100
AcDbEntity
8
A-WALL
6
ByLayer
48
1
60
0
62
256
370
-1
440
255
100
AcDbPolyline
90
4
70
1
38
0
10
0
20
0
40
0
41
0
10
200
20
0
40
0
41
0
10
200
20
100
40
0
41
0
42
0.5
10
0
20
100
40
0
41
0
210
0
220
0
230
1
0
CIRCLE
5
102
330
1E
100
AcDbEntity
8
A-WALL
6
ByLayer
48
1
60
0
62
256
370
-1
440
255
100
AcDbCircle
10
50
20
50
30
0
40
20
210
0
220
0
230
1
0
ARC
5
103
330
1E
100
AcDbEntity
8
A-WALL
6
ByLayer
48
1
60
0
62
256
370
-1
440
255
100
AcDbCircle
10
150
20
50
30
0
40
25
210
0
220
0
230
1
100
AcDbArc
50
0
51
90
0
TEXT
5
104
330
1E
100
AcDbEntity
8
A-TEXT
6
ByLayer
48
1
60
0
62
256
370
-1
440
255
100
AcDbText
10
10
20
110
30
0
39
1
40
8
1
대명건설 도면
50
0
41
1
51
0
7
HANGUL
72
0
73
0
11
10
21
110
31
0
210
0
220
0
230
1
0
MTEXT
5
105
330
1E
100
AcDbEntity
8
A-TEXT
6
ByLayer
48
1
60
0
62
256
370
-1
440
255
100
AcDbMText
10
10
20
145
30
0
40
6
41
120
1
지하 1층 평면도\P축척 1:100\P{\C1;검토자 홍길동}
7
Standard
50
0
11
1
21
0
31
0
71
1
72
5
73
1
44
1
210
0
220
0
230
1
0
INSERT
5
106
330
1E
100
AcDbEntity
8
0
6
ByLayer
48
1
60
0
62
256
370
-1
440
255
100
AcDbBlockReference
10
220
20
10
30
0
2
TITLEBLK
41
1.5
42
1.5
43
1
50
30
210
0
220
0
230
1
0
ATTRIB
5
107
330
106
100
AcDbEntity
8
A-TEXT
6
ByLayer
48
1
60
0
62
256
370
-1
440
255
100
AcDbText
10
223
20
16
30
0
39
1
40
5
1
대명건설 신축공사
50
0
41
1
51
0
7
HANGUL
72
0
73
0
11
223
21
16
31
0
210
0
220
0
230
1
100
AcDbAttribute
70
0
73
0
2
TITLE
74
0
0
SEQEND
5
10012
330
106
100
AcDbEntity
0
HATCH
5
109
330
1E
100
AcDbEntity
8
A-HATCH
6
ByLayer
48
1
60
0
62
256
370
-1
440
255
100
AcDbHatch
10
0
20
0
30
0
210
0
220
0
230
1
2
SOLID
70
1
71
0
91
1
92
1
93
4
72
1
10
20
20
20
11
80
21
20
72
1
10
80
20
20
11
80
21
80
72
1
10
80
20
80
11
20
21
80
72
1
10
20
20
80
11
20
21
20
97
0
75
0
76
1
52
0
41
1
77
0
78
0
47
1
98
0
0
DIMENSION
5
10A
330
1E
100
AcDbEntity
8
치수
6
ByLayer
48
1
60
0
62
256
370
-1
440
255
100
AcDbDimension
280
0
2
*D1
3
Standard
10
50
20
-20
30
0
1
0
53
0
11
50
21
-18
31
0
70
32
71
5
72
1
41
1
42
100
210
0
220
0
230
1
340
1C
100
AcDbRotatedDimension
13
0
23
0
33
0
14
0
24
0
34
0
15
50
25
-20
35
0
50
0
52
0
0
VIEWPORT
5
200
330
1F
100
AcDbEntity
8
0
6
ByLayer
48
1
60
0
62
256
370
-1
440
255
67
1
100
AcDbViewport
10
210
20
148.5
30
0
40
420
41
297
12
0
22
0
32
0
13
0
23
0
33
0
14
10
24
10
34
0
15
10
25
10
35
0
16
0
26
0
36
1
17
0
27
0
37
0
42
50
43
0
44
0
45
297
50
0
51
0
68
0
69
1
71
1
72
100
90
32864
110
0
120
0
130
0
111
1
121
0
131
0
112
0
122
1
132
0
146
0
61
0
63
0
74
0
79
0
141
0
142
0
170
0
281
0
282
0
292
0
345
1D
0
VIEWPORT
5
201
330
1F
100
AcDbEntity
8
0
6
ByLayer
48
1
60
0
62
256
370
-1
440
255
67
1
100
AcDbViewport
10
150
20
150
30
0
40
240
41
180
12
100
22
50
32
0
13
0
23
0
33
0
14
10
24
10
34
0
15
10
25
10
35
0
16
0
26
0
36
1
17
0
27
0
37
0
42
50
43
0
44
0
45
220
50
0
51
0
68
2
69
2
71
1
72
100
90
819232
110
0
120
0
130
0
111
1
121
0
131
0
112
0
122
1
132
0
146
0
61
0
63
0
74
0
79
0
141
0
142
0
170
0
281
0
282
0
292
0
345
1D
0
LINE
5
202
330
1F
100
AcDbEntity
8
0
6
ByLayer
48
1
60
0
62
256
370
-1
440
255
67
1
100
AcDbLine
10
10
20
10
30
0
11
410
21
10
31
0
210
0
220
0
230
1
0
ENDSEC
0
SECTION
2
OBJECTS
0
DICTIONARY
5
C
330
0
100
AcDbDictionary
280
1
281
1
3
ACAD_LAYOUT
350
E
3
ACAD_MLEADERSTYLE
350
10013
3
ACAD_MLINESTYLE
350
10014
0
DICTIONARY
5
E
330
C
100
AcDbDictionary
280
1
281
1
3
Model
350
30
3
Layout1
350
31
0
DICTIONARY
5
10013
330
C
100
AcDbDictionary
280
1
281
1
3
Standard
350
10006
0
DICTIONARY
5
10014
330
C
100
AcDbDictionary
280
1
281
1
3
Standard
350
10005
0
LAYOUT
5
30
330
F
100
AcDbPlotSettings
1
0
2
none_device
4
0
6
0
40
0
41
0
42
0
43
0
44
420
45
297
46
0
47
0
48
0
49
0
140
0
141
0
142
1
143
1
70
688
72
1
73
0
74
5
7
0
75
16
76
0
77
2
78
300
147
1
148
0
149
0
100
AcDbLayout
1
Model
70
1
71
0
330
1E
331
0
10
0
20
0
11
420
21
297
14
0
24
0
34
0
15
420
25
297
35
0
12
0
22
0
32
0
13
0
23
0
33
0
16
1
26
0
36
0
17
0
27
1
37
0
146
0
76
0
0
LAYOUT
5
31
330
F
100
AcDbPlotSettings
1
0
2
none_device
4
0
6
0
40
0
41
0
42
0
43
0
44
420
45
297
46
0
47
0
48
0
49
0
140
0
141
0
142
1
143
1
70
688
72
1
73
0
74
5
7
0
75
16
76
0
77
2
78
300
147
1
148
0
149
0
100
AcDbLayout
1
Layout1
70
1
71
1
330
1F
331
0
10
0
20
0
11
420
21
297
14
0
24
0
34
0
15
420
25
297
35
0
12
0
22
0
32
0
13
0
23
0
33
0
16
1
26
0
36
0
17
0
27
1
37
0
146
0
76
0
0
MLEADERSTYLE
5
10006
330
FFFF
100
AcDbMLeaderStyle
179
2
170
2
171
1
172
0
90
2
40
0
41
0
173
1
91
-1056964608
340
15
92
-2
290
1
42
2
291
1
43
8
3
0
44
4
300
0
342
19
174
1
175
1
176
0
178
1
93
-1056964608
45
4
292
0
297
0
46
4
94
-1056964608
47
1
49
1
140
1
293
1
141
0
294
1
177
0
142
1
295
0
296
0
143
3.75
271
0
272
9
273
9
298
0
0
MLINESTYLE
5
10005
330
10000
100
AcDbMlineStyle
2
Standard
70
0
3
0
62
256
51
90
52
90
71
2
49
0.5
62
256
6
ByLayer
49
-0.5
62
256
6
ByLayer
0
ENDSEC
0
EOF
